<?xml version="1.0" standalone="no"?>
<!DOCTYPE svg PUBLIC "-//W3C//DTD SVG 20010904//EN"
 "http://www.w3.org/TR/2001/REC-SVG-20010904/DTD/svg10.dtd">
<svg version="1.0" xmlns="http://www.w3.org/2000/svg"
 width="512.000000pt" height="512.000000pt" viewBox="0 0 512.000000 512.000000"
 preserveAspectRatio="xMidYMid meet">
<metadata>
Created by potrace 1.16, written by Peter Selinger 2001-2019
</metadata>
<g transform="translate(0.000000,512.000000) scale(0.100000,-0.100000)"
fill="#000000" stroke="none">
<path d="M1825 4344 c-381 -39 -645 -102 -872 -209 -112 -53 -165 -88 -233
-157 -97 -99 -126 -191 -96 -308 31 -121 105 -213 231 -288 71 -42 118 -62
350 -151 322 -123 564 -264 763 -446 171 -157 314 -386 407 -655 31 -91 119
-397 140 -485 3 -16 23 -64 42 -105 83 -173 262 -296 524 -361 123 -30 359
-33 489 -6 283 60 507 184 707 391 223 229 371 515 435 838 26 135 31 387 9
508 -31 176 -116 382 -226 550 -61 92 -234 273 -335 349 -370 279 -857 439
-1570 517 -137 14 -673 27 -765 18z m370 -395 c67 -25 141 -94 175 -164 21
-41 25 -65 24 -130 0 -100 -35 -185 -99 -244 -55 -51 -86 -66 -161 -81 -205
-40 -401 136 -378 340 8 63 35 138 65 180 28 36 98 87 146 105 58 21 163 19
228 -6z"/>
<path d="M338 4170 c-160 -148 -277 -331 -320 -502 -17 -70 -20 -102 -15 -222
6 -162 20 -225 80 -346 33 -68 57 -101 122 -165 110 -108 207 -165 522 -309
287 -132 344 -161 468 -242 211 -139 357 -301 473 -529 56 -109 70 -148 152
-411 109 -349 172 -468 330 -624 105 -105 234 -193 405 -275 248 -120 388
-156 600 -156 248 1 444 47 669 157 406 200 740 553 981 1039 42 86 75 158 73
160 -2 3 -23 -29 -46 -69 -121 -213 -357 -478 -539 -606 -381 -267 -799 -357
-1238 -265 -420 88 -676 248 -813 510 -53 101 -95 221 -147 420 -101 383 -203
583 -391 765 -169 163 -309 243 -699 400 -343 137 -468 209 -583 334 -95 105
-149 232 -172 406 -27 210 21 405 137 546 24 31 43 57 41 60 -2 2 -43 -32 -90
-76z"/>
</g>
</svg>
